<svg width="1065" height="175" viewBox="0 0 1065 175" fill="none" xmlns="http://www.w3.org/2000/svg">
<path d="M17.61 29.39C17.61 12.492 14.516 6.77999 4.996 6.77999H1.902C1.426 6.77999 0.95 6.30399 0.95 5.828V5.35199C0.95 4.876 1.426 4.39999 1.902 4.39999H25.94L91.39 152.198V29.39C91.39 12.492 87.582 6.77999 76.158 6.77999H72.588C71.874 6.77999 71.398 6.30399 71.398 5.828V5.35199C71.398 4.876 71.874 4.39999 72.588 4.39999H109.478C109.954 4.39999 110.43 4.876 110.43 5.35199V5.828C110.43 6.30399 109.954 6.77999 109.478 6.77999H106.384C96.864 6.77999 93.77 12.492 93.77 29.39V157.672L99.72 171H87.82L19.99 17.728V146.01C19.99 162.908 23.798 168.62 35.222 168.62H38.792C39.506 168.62 39.982 169.096 39.982 169.572V170.048C39.982 170.524 39.506 171 38.792 171H1.902C1.426 171 0.95 170.524 0.95 170.048V169.572C0.95 169.096 1.426 168.62 1.902 168.62H4.996C14.516 168.62 17.61 162.908 17.61 146.01V29.39ZM194.712 174.808C146.636 174.808 107.604 135.776 107.604 87.7C107.604 39.624 146.636 0.591995 194.712 0.591995C242.788 0.591995 281.82 39.624 281.82 87.7C281.82 135.776 242.788 174.808 194.712 174.808ZM119.98 87.7C119.98 133.634 148.778 171 194.712 171C240.646 171 269.444 133.634 269.444 87.7C269.444 41.766 240.646 4.39999 194.712 4.39999C148.778 4.39999 119.98 41.766 119.98 87.7ZM376.653 4.39999L381.413 55.808C381.413 56.284 380.937 56.76 380.461 56.76H379.985C379.509 56.76 379.033 56.284 379.033 55.808L378.081 50.334C372.845 20.346 363.325 8.68399 340.953 7.018V146.01C340.953 162.908 344.047 168.62 353.567 168.62H356.661C357.137 168.62 357.613 169.096 357.613 169.572V170.048C357.613 170.524 357.137 171 356.661 171H313.345C312.869 171 312.393 170.524 312.393 170.048V169.572C312.393 169.096 312.869 168.62 313.345 168.62H316.439C325.959 168.62 329.053 162.908 329.053 146.01V7.018C306.681 8.68399 297.161 20.346 291.925 50.334L290.973 55.808C290.973 56.284 290.497 56.76 290.021 56.76H289.545C289.069 56.76 288.593 56.284 288.593 55.808L293.353 4.39999H376.653ZM447.618 29.39C447.618 12.492 444.524 6.77999 435.004 6.77999H431.91C431.434 6.77999 430.958 6.30399 430.958 5.828V5.35199C430.958 4.876 431.434 4.39999 431.91 4.39999H511.878L516.638 55.808C516.638 56.284 516.162 56.76 515.686 56.76H515.21C514.734 56.76 514.258 56.284 514.258 55.808L513.306 50.334C507.594 17.728 496.884 6.77999 469.99 6.77999H459.518V66.28H467.848C484.746 66.28 490.458 60.092 490.458 41.052V34.864C490.458 33.912 490.934 32.96 491.41 32.96H491.886C492.362 32.96 492.838 33.912 492.838 34.864V100.076C492.838 101.028 492.362 101.98 491.886 101.98H491.41C490.934 101.98 490.458 101.028 490.458 100.076V93.888C490.458 74.848 484.746 68.66 467.848 68.66H459.518V146.01C459.518 162.908 462.85 168.62 473.322 168.62H476.892C477.368 168.62 477.844 169.096 477.844 169.572V170.048C477.844 170.524 477.368 171 476.892 171H431.91C431.434 171 430.958 170.524 430.958 170.048V169.572C430.958 169.096 431.434 168.62 431.91 168.62H435.004C444.524 168.62 447.618 162.908 447.618 146.01V29.39ZM612.141 174.808C564.065 174.808 525.033 135.776 525.033 87.7C525.033 39.624 564.065 0.591995 612.141 0.591995C660.217 0.591995 699.249 39.624 699.249 87.7C699.249 135.776 660.217 174.808 612.141 174.808ZM537.409 87.7C537.409 133.634 566.207 171 612.141 171C658.075 171 686.873 133.634 686.873 87.7C686.873 41.766 658.075 4.39999 612.141 4.39999C566.207 4.39999 537.409 41.766 537.409 87.7ZM713.741 135.538V29.39C713.741 12.492 710.647 6.77999 701.127 6.77999H698.033C697.557 6.77999 697.081 6.30399 697.081 5.828V5.35199C697.081 4.876 697.557 4.39999 698.033 4.39999H741.349C741.825 4.39999 742.301 4.876 742.301 5.35199V5.828C742.301 6.30399 741.825 6.77999 741.349 6.77999H738.255C728.735 6.77999 725.641 12.492 725.641 29.39V138.87C725.641 156.482 740.159 171 757.771 171C775.145 171 789.901 153.15 789.901 135.538V29.39C789.901 12.492 786.807 6.77999 777.287 6.77999H774.193C773.717 6.77999 773.241 6.30399 773.241 5.828V5.35199C773.241 4.876 773.717 4.39999 774.193 4.39999H807.989C808.465 4.39999 808.941 4.876 808.941 5.35199V5.828C808.941 6.30399 808.465 6.77999 807.989 6.77999H804.895C795.375 6.77999 792.281 12.492 792.281 29.39V135.538C792.281 157.196 774.431 174.808 753.011 174.808C731.353 174.808 713.741 157.196 713.741 135.538ZM832.481 29.39C832.481 12.492 829.387 6.77999 819.867 6.77999H816.773C816.297 6.77999 815.821 6.30399 815.821 5.828V5.35199C815.821 4.876 816.297 4.39999 816.773 4.39999H840.811L906.261 152.198V29.39C906.261 12.492 902.453 6.77999 891.029 6.77999H887.459C886.745 6.77999 886.269 6.30399 886.269 5.828V5.35199C886.269 4.876 886.745 4.39999 887.459 4.39999H924.349C924.825 4.39999 925.301 4.876 925.301 5.35199V5.828C925.301 6.30399 924.825 6.77999 924.349 6.77999H921.255C911.735 6.77999 908.641 12.492 908.641 29.39V157.672L914.591 171H902.691L834.861 17.728V146.01C834.861 162.908 838.669 168.62 850.093 168.62H853.663C854.377 168.62 854.853 169.096 854.853 169.572V170.048C854.853 170.524 854.377 171 853.663 171H816.773C816.297 171 815.821 170.524 815.821 170.048V169.572C815.821 169.096 816.297 168.62 816.773 168.62H819.867C829.387 168.62 832.481 162.908 832.481 146.01V29.39ZM977.512 168.62C1025.35 168.62 1052.24 139.584 1052.24 87.7C1052.24 35.816 1023.68 6.77999 972.752 6.77999H960.852V168.62H977.512ZM932.292 170.048V169.572C932.292 169.096 932.768 168.62 933.244 168.62H936.338C945.858 168.62 948.952 162.908 948.952 146.01V29.39C948.952 12.492 945.858 6.77999 936.338 6.77999H933.244C932.768 6.77999 932.292 6.30399 932.292 5.828V5.35199C932.292 4.876 932.768 4.39999 933.244 4.39999H972.752C1029.16 4.39999 1064.62 36.53 1064.62 87.7C1064.62 138.87 1031.06 171 977.512 171H933.244C932.768 171 932.292 170.524 932.292 170.048Z" fill="#A90CCB"/>
</svg>
