<svg width="444" height="443" viewBox="0 0 444 443" fill="none" xmlns="http://www.w3.org/2000/svg">
<path d="M1.03595 230.315C3.35034 237.675 6.0975 244.847 9.25836 251.888C15.5241 265.8 23.6902 278.943 33.2864 290.828C42.8451 302.656 53.8333 313.452 66.0451 322.539C72.4424 327.289 79.0844 331.626 86.0087 335.588C92.5755 339.361 99.4435 342.647 106.462 345.538C113.48 348.448 120.724 350.964 128.062 352.917C131.939 353.95 135.852 354.945 139.804 355.715C143.868 356.503 147.913 357.198 152.015 357.78C156.23 358.381 160.464 358.719 164.265 359.019C166.128 359.188 168.009 359.282 169.891 359.338C171.678 359.376 173.466 359.451 175.254 359.451H175.555C179.638 359.432 183.721 359.376 187.804 359.113C195.763 358.606 203.666 357.648 211.512 356.146C219.132 354.663 226.715 352.786 234.091 350.308C241.655 347.754 249.163 344.919 256.332 341.389C259.982 339.587 263.613 337.747 267.151 335.757C270.557 333.842 273.868 331.795 277.161 329.692C280.491 327.589 283.709 325.261 286.889 322.914C289.937 320.642 292.929 318.296 295.808 315.817C301.866 310.617 307.624 305.115 313.005 299.201C318.217 293.475 323.072 287.411 327.512 281.065C336.45 268.26 343.92 254.291 349.263 239.609C351.879 232.362 354.212 225.021 355.905 217.492C355.943 217.342 355.981 217.191 356 217.041C356 217.022 356 217.004 356.018 216.985C356.131 216.422 356.263 215.84 356.395 215.276C356.564 214.694 356.658 214.056 356.79 213.474C356.997 212.46 357.204 211.427 357.411 210.414C357.768 208.555 358.107 206.677 358.389 204.8C359.01 200.782 359.499 196.782 359.894 192.746C360.647 185.011 360.816 177.219 360.572 169.465C360.308 161.729 359.499 154.05 358.276 146.409C357.091 138.955 355.416 131.538 353.252 124.31C348.812 109.534 342.734 95.2273 334.756 81.9908C326.797 68.8106 317.333 56.5504 306.345 45.7171C301.377 40.817 296.146 36.1605 290.652 31.8424C289.297 30.7722 287.905 29.7396 286.531 28.6882C285.798 28.1437 285.045 27.5992 284.292 27.0547C283.954 26.8107 283.615 26.5478 283.257 26.3225C283.145 26.2287 283.013 26.1348 282.9 26.0597C282.674 25.9095 282.448 25.7405 282.335 25.6654C282.241 25.5903 282.147 25.534 282.053 25.4589C281.978 25.4025 281.903 25.3462 281.809 25.2899L281.583 25.1209C275.75 21.0092 269.597 17.273 263.651 14.1565C263.124 13.8748 262.578 13.5557 262.033 13.2928C261.751 13.1051 261.45 12.9549 261.13 12.8234C260.772 12.6357 260.396 12.4667 260.038 12.279C259.098 11.7908 258.138 11.3214 257.197 10.8708C255.428 10.0071 253.66 9.18106 251.853 8.37372C248.523 6.87171 245.136 5.48236 241.711 4.22442C237.967 2.83507 234.166 1.53959 230.328 0.356729C229.932 0.24408 229.519 0.131427 229.123 0C231.551 0.0751006 233.997 0.187754 236.424 0.319176C241.617 0.600805 246.791 1.20159 251.947 1.87752C256.407 2.49712 260.829 3.21054 265.25 4.093C269.954 5.05054 274.602 6.13948 279.249 7.34109C284.235 8.6929 289.146 10.1574 294.038 11.8283C298.817 13.4618 303.522 15.283 308.188 17.1981H308.207L308.395 17.2732C316.354 20.709 324.2 24.4266 331.707 28.7447C331.802 28.8198 331.914 28.8761 332.027 28.9325C332.573 29.2516 333.1 29.5521 333.646 29.8712C334.003 30.0777 334.379 30.303 334.737 30.4908L334.756 30.5096C338.726 32.894 342.658 35.3348 346.497 37.9259C350.316 40.5169 354.042 43.2207 357.711 46.018C361.267 48.8155 364.805 51.6507 368.21 54.636C371.729 57.7151 375.135 60.8882 378.484 64.1551C381.607 67.3093 384.712 70.4823 387.647 73.8055C390.789 77.3728 393.838 81.0151 396.81 84.7324C399.501 88.2246 402.116 91.7729 404.656 95.3777C407.253 99.0576 409.643 102.869 412.013 106.699V106.718C412.295 107.319 412.709 107.863 413.029 108.427C413.293 108.877 413.556 109.328 413.819 109.778C413.876 109.872 413.932 109.985 413.989 110.079C414.045 110.154 414.083 110.229 414.139 110.323C414.779 111.468 415.438 112.613 416.077 113.759C417.225 115.768 418.279 117.833 419.351 119.879C421.59 124.235 423.698 128.628 425.655 133.116C425.918 133.698 426.182 134.28 426.389 134.787C428.364 139.556 430.227 144.381 431.958 149.262C433.614 153.956 434.987 158.744 436.361 163.532C437.584 168.301 438.732 173.088 439.71 177.913C440.67 182.645 441.422 187.395 442.118 192.164C442.363 194.248 442.683 196.332 442.852 198.435C443.059 200.988 443.285 203.541 443.511 206.095C443.718 208.479 443.774 210.864 443.906 213.248C443.981 215.445 443.962 217.679 444 219.914C443.981 222.411 444 224.945 443.906 227.461C443.793 230.54 443.661 233.6 443.454 236.661C443.247 239.721 442.946 242.782 442.645 245.823C442.363 248.527 441.968 251.23 441.667 253.484C441.328 255.662 440.971 257.839 440.613 260.036C440.256 262.233 439.766 264.411 439.352 266.608C438.543 270.794 437.433 274.944 436.38 279.093C435.646 281.59 434.912 284.069 434.197 286.547C433.501 288.913 432.673 291.241 431.92 293.569C431.111 296.047 430.114 298.488 429.211 300.948C428.42 303.126 427.48 305.247 426.689 307.275C426.671 307.331 426.652 307.369 426.614 307.425L426.595 307.463C425.673 309.565 424.808 311.687 423.811 313.752C422.813 315.855 421.872 317.995 420.8 320.061C419.558 322.408 418.335 324.755 417.112 327.101C416.04 329.167 414.835 331.157 413.688 333.184C412.54 335.099 411.373 337.014 410.207 338.911C408.984 340.92 407.629 342.872 406.349 344.844C405.089 346.759 403.734 348.618 402.436 350.495C401.213 352.241 399.914 353.912 398.654 355.602C397.186 357.461 395.737 359.319 394.269 361.178C392.783 363.056 391.184 364.84 389.641 366.679C388.135 368.463 386.517 370.172 384.955 371.899C383.413 373.626 381.757 375.259 380.157 376.931C378.596 378.451 377.034 379.991 375.491 381.512C374.626 382.375 373.704 383.183 372.8 384.009C372.085 384.666 371.389 385.361 370.655 385.98C368.755 387.632 366.836 389.285 364.935 390.937C363.223 392.42 361.417 393.809 359.648 395.255C357.879 396.607 356.092 397.977 354.323 399.329C352.422 400.775 350.409 402.127 348.471 403.516C346.439 404.962 344.313 406.295 342.243 407.665C340.418 408.867 338.517 409.993 336.654 411.157C334.547 412.378 332.44 413.598 330.332 414.8C329.429 415.325 328.488 415.814 327.548 416.302C326.513 416.865 325.459 417.466 324.386 418.01C322.053 419.174 319.701 420.32 317.368 421.484C315.261 422.516 313.078 423.455 310.915 424.431C308.657 425.37 306.418 426.309 304.16 427.229C302.09 428.093 299.983 428.825 297.875 429.632C295.58 430.515 293.209 431.228 290.895 432.017C288.787 432.749 286.623 433.368 284.497 434.026C279.041 435.509 273.584 436.992 268.052 438.137C264.853 438.794 261.674 439.395 258.456 439.977C255.746 440.465 252.999 440.803 250.722 441.122C245.812 441.704 240.919 442.23 235.971 442.531C230.778 442.831 225.603 442.962 220.41 443C215.95 442.906 211.51 442.793 207.051 442.493C202.309 442.155 197.605 441.667 192.901 441.104C187.821 440.372 182.797 439.527 177.754 438.569C172.9 437.649 168.121 436.41 163.36 435.152C158.694 433.819 154.065 432.392 149.455 430.871C145.109 429.426 140.856 427.717 136.867 426.121C136.754 426.084 136.66 426.027 136.566 425.99C132.182 424.112 127.817 422.178 123.546 420.075C118.879 417.766 114.326 415.288 110.168 412.903C106.103 410.463 102.039 408.003 98.1066 405.337C94.1176 402.633 90.2228 399.817 86.3654 396.926C82.7904 394.128 79.2716 391.274 75.8473 388.289C72.2346 385.135 68.7534 381.849 65.3291 378.526C62.1116 375.259 58.9318 371.936 55.8649 368.538C52.8732 365.215 50.0321 361.741 47.2658 358.268C44.4998 354.682 41.7905 351.058 39.2125 347.341C36.6159 343.605 34.1884 339.775 31.8368 336.001C29.2214 331.626 26.7565 327.177 24.3856 322.671C22.0336 318.183 19.945 313.565 17.9127 308.946C15.937 304.29 14.0366 299.596 12.3998 294.827C10.7628 290.077 9.27628 285.308 7.92154 280.52C6.6044 275.62 5.38141 270.701 4.38412 265.725C3.3869 260.825 2.57779 255.887 1.88162 250.949C1.29834 246.274 0.809082 241.599 0.451569 236.924C0.20697 233.507 0.0752563 230.09 -3.05176e-05 226.673C0.301025 227.875 0.640839 229.095 1.03595 230.315Z" fill="#EF9B0F"/>
</svg>
